{
  "accessors": [
    {
      "bufferView": 2,
      "componentType": 5126,
      "count": 185,
      "max": [
        0.7653539776802063,
        6.82875919342041,
        0.5566189885139465
      ],
      "min": [
        -0.7630670070648193,
        4.349146842956543,
        -0.2097879946231842
      ],
      "type": "VEC3"
    },
    {
      "bufferView": 2,
      "byteOffset": 2220,
      "componentType": 5126,
      "count": 185,
      "max": [
        0.7793578505516052,
        0.7955659031867981,
        0.999355137348175
      ],
      "min": [
        -0.7919421195983887,
        -0.1317090094089508,
        0.5770459175109863
      ],
      "type": "VEC3"
    },
    {
      "bufferView": 3,
      "componentType": 5126,
      "count": 185,
      "max": [
        0.999970555305481,
        0.19886407256126404,
        0.78853839635849,
        1.0
      ],
      "min": [
        0.5900347232818604,
        -0.23184072971343994,
        -0.7742645740509033,
        1.0
      ],
      "type": "VEC4"
    },
    {
      "bufferView": 1,
      "componentType": 5126,
      "count": 185,
      "max": [
        0.35195401310920715,
        0.903315007686615
      ],
      "min": [
        0.08959800004959106,
        0.4817200005054474
      ],
      "type": "VEC2"
    },
    {
      "bufferView": 1,
      "byteOffset": 1480,
      "componentType": 5126,
      "count": 185,
      "max": [
        0.35195401310920715,
        0.903315007686615
      ],
      "min": [
        0.08959800004959106,
        0.4817200005054474
      ],
      "type": "VEC2"
    },
    {
      "bufferView": 1,
      "byteOffset": 2960,
      "componentType": 5126,
      "count": 185,
      "max": [
        0.35195401310920715,
        0.903315007686615
      ],
      "min": [
        0.08959800004959106,
        0.4817200005054474
      ],
      "type": "VEC2"
    },
    {
      "bufferView": 1,
      "byteOffset": 4440,
      "componentType": 5126,
      "count": 185,
      "max": [
        0.35195401310920715,
        0.903315007686615
      ],
      "min": [
        0.08959800004959106,
        0.4817200005054474
      ],
      "type": "VEC2"
    },
    {
      "bufferView": 1,
      "byteOffset": 5920,
      "componentType": 5126,
      "count": 185,
      "max": [
        0.35195401310920715,
        0.903315007686615
      ],
      "min": [
        0.08959800004959106,
        0.4817200005054474
      ],
      "type": "VEC2"
    },
    {
      "bufferView": 0,
      "componentType": 5125,
      "count": 930,
      "type": "SCALAR"
    },
    {
      "bufferView": 2,
      "byteOffset": 4440,
      "componentType": 5126,
      "count": 3386,
      "max": [
        2.750369071960449,
        7.201113224029541,
        0.5837100148200989
      ],
      "min": [
        -2.7511329650878906,
        4.3887529373168945,
        -0.8130890130996704
      ],
      "type": "VEC3"
    },
    {
      "bufferView": 2,
      "byteOffset": 45072,
      "componentType": 5126,
      "count": 3386,
      "max": [
        0.9999921321868896,
        0.9484023451805115,
        0.9999970197677612
      ],
      "min": [
        -0.9990119934082031,
        -0.9951279759407043,
        -0.9999926090240479
      ],
      "type": "VEC3"
    },
    {
      "bufferView": 3,
      "byteOffset": 2960,
      "componentType": 5126,
      "count": 3386,
      "max": [
        0.9946143627166748,
        0.9566105008125305,
        0.999879002571106,
        1.0
      ],
      "min": [
        -0.9999999403953552,
        -0.9422488808631897,
        -0.9954602718353271,
        1.0
      ],
      "type": "VEC4"
    },
    {
      "bufferView": 1,
      "byteOffset": 7400,
      "componentType": 5126,
      "count": 3386,
      "max": [
        0.9544209837913513,
        1.0
      ],
      "min": [
        0.0,
        0.0
      ],
      "type": "VEC2"
    },
    {
      "bufferView": 1,
      "byteOffset": 34488,
      "componentType": 5126,
      "count": 3386,
      "max": [
        0.9544209837913513,
        1.0
      ],
      "min": [
        0.0,
        0.0
      ],
      "type": "VEC2"
    },
    {
      "bufferView": 1,
      "byteOffset": 61576,
      "componentType": 5126,
      "count": 3386,
      "max": [
        0.9544209837913513,
        1.0
      ],
      "min": [
        0.0,
        0.0
      ],
      "type": "VEC2"
    },
    {
      "bufferView": 1,
      "byteOffset": 88664,
      "componentType": 5126,
      "count": 3386,
      "max": [
        0.9544209837913513,
        1.0
      ],
      "min": [
        0.0,
        0.0
      ],
      "type": "VEC2"
    },
    {
      "bufferView": 1,
      "byteOffset": 115752,
      "componentType": 5126,
      "count": 3386,
      "max": [
        0.9544209837913513,
        1.0
      ],
      "min": [
        0.0,
        0.0
      ],
      "type": "VEC2"
    },
    {
      "bufferView": 0,
      "byteOffset": 3720,
      "componentType": 5125,
      "count": 18471,
      "type": "SCALAR"
    }
  ],
  "asset": {
    "extras": {
      "author": "IanAbenaitwe (https://sketchfab.com/IanAbenaitwe)",
      "license": "CC-BY-4.0 (http://creativecommons.org/licenses/by/4.0/)",
      "source": "https://sketchfab.com/3d-models/cloth-jacket-834ce9961eeb460f94fed92732785978",
      "title": "Cloth Jacket"
    },
    "generator": "Sketchfab-12.66.0",
    "version": "2.0"
  },
  "bufferViews": [
    {
      "buffer": 0,
      "byteLength": 77604,
      "name": "floatBufferViews",
      "target": 34963
    },
    {
      "buffer": 0,
      "byteLength": 142840,
      "byteOffset": 77604,
      "byteStride": 8,
      "name": "floatBufferViews",
      "target": 34962
    },
    {
      "buffer": 0,
      "byteLength": 85704,
      "byteOffset": 220444,
      "byteStride": 12,
      "name": "floatBufferViews",
      "target": 34962
    },
    {
      "buffer": 0,
      "byteLength": 57136,
      "byteOffset": 306148,
      "byteStride": 16,
      "name": "floatBufferViews",
      "target": 34962
    }
  ],
  "buffers": [
    {
      "byteLength": 363284,
      "uri": "scene.bin"
    }
  ],
  "images": [
    {
      "uri": "textures/JacketAndShirt_baseColor.jpeg"
    },
    {
      "uri": "textures/JacketAndShirt_metallicRoughness.png"
    },
    {
      "uri": "textures/JacketAndShirt_normal.png"
    }
  ],
  "materials": [
    {
      "doubleSided": true,
      "name": "JacketAndShirt",
      "normalTexture": {
        "index": 2
      },
      "occlusionTexture": {
        "index": 1
      },
      "pbrMetallicRoughness": {
        "baseColorTexture": {
          "index": 0
        },
        "metallicRoughnessTexture": {
          "index": 1
        }
      }
    }
  ],
  "meshes": [
    {
      "name": "Object_0",
      "primitives": [
        {
          "attributes": {
            "NORMAL": 1,
            "POSITION": 0,
            "TANGENT": 2,
            "TEXCOORD_0": 3,
            "TEXCOORD_1": 4,
            "TEXCOORD_2": 5,
            "TEXCOORD_3": 6,
            "TEXCOORD_4": 7
          },
          "indices": 8,
          "material": 0,
          "mode": 4
        }
      ]
    },
    {
      "name": "Object_1",
      "primitives": [
        {
          "attributes": {
            "NORMAL": 10,
            "POSITION": 9,
            "TANGENT": 11,
            "TEXCOORD_0": 12,
            "TEXCOORD_1": 13,
            "TEXCOORD_2": 14,
            "TEXCOORD_3": 15,
            "TEXCOORD_4": 16
          },
          "indices": 17,
          "material": 0,
          "mode": 4
        }
      ]
    }
  ],
  "nodes": [
    {
      "children": [
        1
      ],
      "matrix": [
        1.0,
        0.0,
        0.0,
        0.0,
        0.0,
        2.220446049250313e-16,
        -1.0,
        0.0,
        0.0,
        1.0,
        2.220446049250313e-16,
        0.0,
        0.0,
        0.0,
        0.0,
        1.0
      ],
      "name": "Sketchfab_model"
    },
    {
      "children": [
        2
      ],
      "name": "root"
    },
    {
      "children": [
        3
      ],
      "matrix": [
        1.0,
        0.0,
        0.0,
        0.0,
        0.0,
        2.220446049250313e-16,
        1.0,
        0.0,
        0.0,
        -1.0,
        2.220446049250313e-16,
        0.0,
        0.0,
        0.0,
        0.0,
        1.0
      ],
      "name": "GLTF_SceneRootNode"
    },
    {
      "children": [
        4
      ],
      "matrix": [
        1.0,
        0.0,
        -0.0,
        0.0,
        -0.0,
        0.0,
        -1.0,
        0.0,
        0.0,
        1.0,
        0.0,
        0.0,
        0.0,
        0.0,
        0.0,
        1.0
      ],
      "name": "RootNode (gltf orientation matrix)_0"
    },
    {
      "children": [
        5
      ],
      "name": "RootNode (model correction matrix)_1"
    },
    {
      "children": [
        6,
        9
      ],
      "matrix": [
        1.0,
        0.0,
        0.0,
        0.0,
        0.0,
        -4.371138828673793e-08,
        1.0,
        0.0,
        0.0,
        -1.0,
        -4.371138828673793e-08,
        0.0,
        0.0,
        0.0,
        0.0,
        1.0
      ],
      "name": "Collada visual scene group_2"
    },
    {
      "children": [
        7
      ],
      "name": "Shirt_low_3"
    },
    {
      "children": [
        8
      ],
      "name": "defaultMaterial_4"
    },
    {
      "mesh": 0,
      "name": "Object_8"
    },
    {
      "children": [
        10
      ],
      "name": "Jacket_low_5"
    },
    {
      "children": [
        11
      ],
      "name": "defaultMaterial_6"
    },
    {
      "mesh": 1,
      "name": "Object_11"
    }
  ],
  "samplers": [
    {
      "magFilter": 9729,
      "minFilter": 9987,
      "wrapS": 10497,
      "wrapT": 10497
    }
  ],
  "scene": 0,
  "scenes": [
    {
      "name": "Sketchfab_Scene",
      "nodes": [
        0
      ]
    }
  ],
  "textures": [
    {
      "sampler": 0,
      "source": 0
    },
    {
      "sampler": 0,
      "source": 1
    },
    {
      "sampler": 0,
      "source": 2
    }
  ]
}
